<?xml version="1.0" encoding="UTF-8" standalone="no"?>
<!-- Generator: Adobe Illustrator 13.0.1, SVG Export Plug-In . SVG Version: 6.00 Build 14948)  -->

<svg
   xmlns:dc="http://purl.org/dc/elements/1.1/"
   xmlns:cc="http://creativecommons.org/ns#"
   xmlns:rdf="http://www.w3.org/1999/02/22-rdf-syntax-ns#"
   xmlns:svg="http://www.w3.org/2000/svg"
   xmlns="http://www.w3.org/2000/svg"
   xmlns:sodipodi="http://sodipodi.sourceforge.net/DTD/sodipodi-0.dtd"
   xmlns:inkscape="http://www.inkscape.org/namespaces/inkscape"
   version="1.1"
   id="fife_xA0_Image_1_"
   x="0px"
   y="0px"
   width="164.08849"
   height="230.64906"
   viewBox="-111.032 -46.682 164.08849 230.64907"
   enable-background="new -111.032 -46.682 321.472 283.564"
   xml:space="preserve"
   inkscape:version="0.48.3.1 r9886"
   sodipodi:docname="johnny_automatic_pan_pipes.svg"><metadata
   id="metadata3458"><rdf:RDF><cc:Work
       rdf:about=""><dc:format>image/svg+xml</dc:format><dc:type
         rdf:resource="http://purl.org/dc/dcmitype/StillImage" /><dc:title></dc:title></cc:Work></rdf:RDF></metadata><defs
   id="defs3456" /><sodipodi:namedview
   pagecolor="#ffffff"
   bordercolor="#666666"
   borderopacity="1"
   objecttolerance="10"
   gridtolerance="10"
   guidetolerance="10"
   inkscape:pageopacity="0"
   inkscape:pageshadow="2"
   inkscape:window-width="1280"
   inkscape:window-height="1000"
   id="namedview3454"
   showgrid="false"
   fit-margin-top="0"
   fit-margin-left="0"
   fit-margin-right="0"
   fit-margin-bottom="0"
   inkscape:zoom="0.58849926"
   inkscape:cx="-117.1311"
   inkscape:cy="240.53531"
   inkscape:window-x="1280"
   inkscape:window-y="24"
   inkscape:window-maximized="1"
   inkscape:current-layer="g3302"><inkscape:grid
     type="xygrid"
     id="grid3466"
     empspacing="5"
     visible="true"
     enabled="true"
     snapvisiblegridlinesonly="true"
     originx="-4.0051995px"
     originy="-48.684949px" /></sodipodi:namedview>
<g
   id="g3302"
   transform="translate(-4.0051996,-4.22997)">
	
	
	
	
	
	
	
	
	
	
	
	
	
	
	
	
	
	
	
	
	
	
	
	
	
	
	
	
	
	
	
	
	
	
	
	
	
	
	
	
	
	
	
	
	
	
	
	
	
	
	
	
	
	
	
	
	
	
	
	
	
	
	
	
	
	
	
	
	
	
	
	
	
	
	
<path
   d="M 101.71875,4.25 C 94.80025,4.45237 87.808,6.1750002 83,8.8125 72.796,3.6365004 58.92625,4.4390004 49.15625,8 38.88525,1.8100006 20.095995,5.5470004 10.5,9.625 c 1.110995,18.716988 1.294995,44.328252 0,60.40625 -1.1719998,1.513 -5.2675002,0.111 -6.4375,1.625 0.885,8.334 -0.326,14.632248 0,24.15625 1.4189998,2.603 7.6435,0.42425 8.0625,4.03125 -0.155,30.832 -0.2875,56.45975 -0.8125,84.59375 5.522,9.253 23.234502,16.05775 35.4375,8.84375 -2.262,18.99501 24.659512,17.2875 35.4375,13.6875 2.42,14.206 20.55601,19.5535 36.25,15.3125 6.19084,10.39133 22.95305,15.8784 37.84375,10.5 0.009,-0.003 0.022,0.003 0.0312,0 l 4.125,0 c -1.02789,-7.89046 1.22265,-21.69415 0.71875,-32.25 -1.43878,-30.19481 -1.07579,-73.00186 -0.1875,-99.0625 l 0,-3.21875 c 2.29795,-0.728109 6.16982,0.130571 7.125,-1.9375 -2.518,-7.768 1.2975,-17.83675 -0.8125,-24.96875 -0.69505,-1.96467 -5.50532,0.220914 -6.3125,-1.625 l 0,-0.09375 c -0.62931,-14.090848 -1.32574,-32.249052 0.0937,-49.90625 l 0,-5.125 c -0.2379,-0.0535 -0.48187,-0.10142 -0.71875,-0.15625 0.21845,-0.32298 0.45203,-0.64397 0.71875,-0.9375 l 0,-6.6875 c -1.80635,0.97103 -3.59838,1.91451 -5.5625,2 -4.098,0.181 -8.01675,-2.72175 -12.09375,-3.21875 C 134.62135,4.5267502 127.9305,6.8605002 120.0625,8.8125 115.4895,5.3655004 108.63725,4.04762 101.71875,4.25 z M 32.25,8.8125 c 4.67,1.77499 13.591,-0.6922496 16.125,3.21875 -6.816,4.873 -22.415,3.1405 -29,-0.8125 5.379,-3.1249998 14.29125,3.892 24.15625,1.625 C 42.70425,8.5677504 31.89,14.2735 32.25,8.8125 z m 70,0 c 6.33425,0.0106 12.814,1.51125 16.1875,4.03125 -5.877,3.93 -24.37725,3.3515 -31.40625,0.8125 2.7055,-3.3675 8.8845,-4.85438 15.21875,-4.84375 z m 34.34375,0.75 c 6.87026,-0.26231 14.44925,1.39856 19.71875,3.28125 -6.116,5.195 -25.76125,7.38675 -33.03125,1.59375 3.04631,-3.31844 7.96897,-4.67099 13.3125,-4.875 z m -71.25,0.65625 c 6.40133,-0.047 13.31294,1.4665 16.84375,3.4375 -5.257,4.797 -23.3,2.689 -29,0 2.50206,-2.415 7.17744,-3.40092 12.15625,-3.4375 z M 16.9375,14.4375 c 9.251,1.662 16.553252,4.2595 27.40625,2.4375 1.845,17.485988 0.3035,38.365502 0.8125,57.1875 C 37.37325,75.6785 26.8,74.526 17.75,74.875 14.866,56.139002 16.7165,34.591488 16.9375,14.4375 z M 49.15625,15.25 c 6.998,4.252 22.9425,3.05575 31.4375,3.21875 -0.527,18.802988 1.0565,39.751752 -0.8125,57.21875 -9.523,-1.22 -20.859,-0.651 -30.625,-1.625 0.25,-19.596998 -2.277,-38.553512 0,-58.8125 z M 84.625,16.875 c 11.622988,2.037 21.90525,0.66 33.03125,0 0.817,16.781988 0.1005,41.993502 -0.8125,57.1875 -11.031,-0.292 -21.2915,0.2195 -31.4375,0.8125 -1.08,-19.238998 -1.59325,-41.214012 -0.78125,-58 z m 37.03125,0.8125 c 9.206,4.981 24.52625,1.426 34.65625,0 0.96014,14.797597 1.28882,31.911356 0.4375,48.875 l -0.0937,0 c -0.0839,1.794159 -0.17199,3.429743 -0.25,4.65625 L 156.21875,74 l -14,0.03125 0,0.03125 -20.5625,0 c -2.008,-17.924998 -0.128,-42.693012 0,-56.375 z m 34.90625,57.5625 0.78125,0 1.8125,0 2.75,0 -0.0937,8.09375 0,7.59375 c -0.89989,0.02191 -1.7636,0.04279 -2.65625,0.0625 -0.60958,0.01364 -1.20572,0.01845 -1.8125,0.03125 -5.14862,0.106339 -10.21782,0.187575 -15.125,0.25 l 0,0.03125 C 99.619454,91.76805 56.514221,92.266557 10.5,92.59375 8.6240002,88.561748 10.63325,80.64775 8.90625,76.46875 46.358851,77.339996 80.338464,74.317827 118.625,77.25 c 0.0625,0.0048 0.12501,-0.0048 0.1875,0 0.33864,0.0098 0.55723,0.0054 0.78125,0 7.73807,-0.755494 16.25493,-1.277204 25.25,-1.65625 0.75854,-0.0043 1.52008,0.0071 2.28125,0 4.24573,-0.168794 8.5901,-0.343694 9.4375,-0.34375 z m -47.40625,20.53125 c 2.8105,-0.009 5.66325,0.01355 8.5,0.03125 1.87,38.675 0.25125,80.82474 0.78125,120.84375 -10.666,5.552 -28.46975,3.09025 -32.21875,-6.46875 -3.144,-8.01001 -0.98975,-24.56925 -1.59375,-37.03125 -1.185,-24.421 1.72825,-49.17975 0.78125,-75.71875 7.12425,-1.335 15.3185,-1.63033 23.75,-1.65625 z m 14.9375,0.03125 27.46875,0 c 0.7171,0.08765 1.44452,0.179438 2.15625,0.28125 l 3.28125,0 0.0312,10.46875 0.125,0 c 0.0842,41.8426 -0.59807,88.0592 0.75,121.34375 -11.499,8.339 -28.467,2.0975 -34.625,-6.4375 -2.907,-34.43001 -1.112,-80.283 -1.625,-123.25 0.449,-1.16 1.2775,-1.95625 2.4375,-2.40625 z M 19.375,96.625 l 26.5625,0 c 1.345,29.017 1.332,63.61 0,92.625 -6.857,3.603 -21.1865,5.1525 -26.5625,-0.8125 -3.154,-25.049 -1.363,-61.09525 -1.625,-89.40625 -0.034,-1.377 0.61,-2.07025 1.625,-2.40625 z m 32.21875,0 29,0 c 1.887,31.239 0.6705,74.7695 0.8125,106.3125 -8.308,5.28601 -25.138,5.46076 -30.625,-2.40625 -0.675,-30.103 -2.1645,-74.93925 0.8125,-103.90625 z"
   transform="translate(-111.032,-46.682004)"
   id="path3450-2"
   inkscape:connector-curvature="0" /></g>
</svg>